<svg width="218" height="35" viewBox="0 0 218 35" fill="none" xmlns="http://www.w3.org/2000/svg">
<path d="M4.568 7.64C3.224 7.64 2.22133 7.30933 1.56 6.648C0.92 5.98667 0.6 5.12267 0.6 4.056C0.6 3.01067 0.92 2.14667 1.56 1.464C2.22133 0.781332 3.224 0.439999 4.568 0.439999C5.848 0.439999 6.82933 0.791999 7.512 1.496C8.19467 2.17867 8.536 3.032 8.536 4.056C8.536 5.12267 8.20533 5.98667 7.544 6.648C6.88267 7.30933 5.89067 7.64 4.568 7.64ZM0.856 27C1.00533 23.5653 1.08 20.728 1.08 18.488C1.08 15.8213 0.994667 12.8347 0.824 9.528H8.504C8.33333 12.7067 8.248 15.6933 8.248 18.488C8.248 20.8347 8.32267 23.672 8.472 27H0.856ZM18.573 6.008C18.573 7.928 18.157 9.56 17.325 10.904C16.5143 12.2267 15.4477 13.208 14.125 13.848C13.1223 12.8453 12.269 12.0987 11.565 11.608C13.677 11.032 14.989 9.976 15.501 8.44H11.085V2.04H18.573V6.008ZM45.6113 27C45.7819 24.2053 45.8673 21.3147 45.8673 18.328C45.8673 17.368 45.6219 16.6213 45.1313 16.088C44.6619 15.5333 44.0326 15.256 43.2433 15.256C42.5179 15.256 41.8886 15.576 41.3553 16.216C40.8433 16.856 40.5873 17.784 40.5873 19V18.968C40.5873 22.744 40.6406 25.4213 40.7473 27H33.5473C33.6753 23.864 33.7393 20.9733 33.7393 18.328C33.7393 17.3893 33.5046 16.6427 33.0353 16.088C32.5873 15.5333 32.0113 15.256 31.3073 15.256C30.5606 15.256 29.9313 15.576 29.4193 16.216C28.9286 16.8347 28.6406 17.688 28.5553 18.776C28.5126 20.3973 28.4913 21.5493 28.4913 22.232C28.4913 23.6827 28.5339 25.272 28.6193 27H20.9713C21.1419 23.928 21.2273 21.0267 21.2273 18.296C21.2273 15.5653 21.1419 12.6427 20.9713 9.528C22.3793 9.592 23.4566 9.624 24.2033 9.624C24.9926 9.624 26.0699 9.592 27.4353 9.528L28.3953 14.264C28.8859 12.536 29.6646 11.2667 30.7313 10.456C31.7979 9.624 33.0246 9.208 34.4113 9.208C36.0753 9.208 37.4299 9.66667 38.4753 10.584C39.5419 11.5013 40.2033 12.696 40.4593 14.168C40.9499 12.6533 41.7713 11.448 42.9233 10.552C44.0753 9.656 45.3873 9.208 46.8593 9.208C48.7793 9.208 50.2833 9.85867 51.3713 11.16C52.4593 12.44 53.0033 14.2 53.0033 16.44V21.752C53.0033 24.1627 53.0246 25.912 53.0673 27H45.6113ZM82.8545 21.688C82.8545 22.4133 82.9398 22.9253 83.1105 23.224C83.2812 23.5227 83.6225 23.736 84.1345 23.864L84.0065 26.872C83.3238 26.9787 82.7265 27.0533 82.2145 27.096C81.7238 27.1387 81.0625 27.16 80.2305 27.16C78.3958 27.16 77.1798 26.7547 76.5825 25.944C75.9852 25.112 75.6865 24.056 75.6865 22.776V21.976C75.0678 23.7253 74.1612 25.0267 72.9665 25.88C71.7932 26.7333 70.2892 27.16 68.4545 27.16C66.3212 27.16 64.7105 26.7333 63.6225 25.88C62.5558 25.0267 62.0225 23.7573 62.0225 22.072C62.0225 20.6853 62.4812 19.5973 63.3985 18.808C64.3158 18.0187 65.7345 17.4747 67.6545 17.176C66.0332 16.024 64.4118 15.0213 62.7905 14.168C64.0705 12.5467 65.5318 11.32 67.1745 10.488C68.8172 9.63467 70.8118 9.208 73.1585 9.208C76.4438 9.208 78.8758 9.92267 80.4545 11.352C82.0545 12.76 82.8545 14.936 82.8545 17.88V21.688ZM73.8305 14.84C72.7425 14.84 71.7825 15.0213 70.9505 15.384C70.1185 15.7467 69.3718 16.2907 68.7105 17.016C69.9905 16.8667 71.5905 16.792 73.5105 16.792C74.2998 16.792 74.8545 16.696 75.1745 16.504C75.4945 16.312 75.6545 16.0667 75.6545 15.768C75.6545 15.512 75.4945 15.2987 75.1745 15.128C74.8545 14.936 74.4065 14.84 73.8305 14.84ZM70.4705 21.944C71.6652 21.944 72.7425 21.72 73.7025 21.272C74.6625 20.8027 75.3238 20.1947 75.6865 19.448V18.616C75.1745 18.872 74.6092 19.0747 73.9905 19.224C73.3718 19.352 72.6252 19.48 71.7505 19.608L70.5985 19.8C69.4038 20.0347 68.8065 20.44 68.8065 21.016C68.8065 21.6347 69.3612 21.944 70.4705 21.944ZM106.964 15.256C105.001 15.128 103.209 15.032 101.588 14.968L101.556 18.36C101.556 19.512 101.801 20.4187 102.292 21.08C102.804 21.72 103.7 22.04 104.98 22.04C105.47 22.04 105.94 21.9973 106.388 21.912C106.302 22.7013 106.26 23.5013 106.26 24.312C106.26 24.696 106.281 25.5707 106.324 26.936C105.385 27.1067 104.596 27.2133 103.956 27.256C103.316 27.2987 102.484 27.32 101.46 27.32C98.9635 27.32 97.1928 26.7227 96.1475 25.528C95.1235 24.312 94.6115 22.6267 94.6115 20.472L94.6435 15.064C93.6408 15.1067 92.5955 15.1707 91.5075 15.256V9.592C92.6168 9.592 93.5555 9.24 94.3235 8.536C95.0915 7.832 95.5502 6.98933 95.6995 6.008H104.404C103.316 7.50133 102.11 8.696 100.788 9.592H106.964V15.256ZM125.802 19H115.37C115.54 19.9387 115.956 20.7067 116.618 21.304C117.3 21.88 118.26 22.168 119.498 22.168C120.394 22.168 121.236 21.9973 122.026 21.656C122.815 21.2933 123.444 20.792 123.914 20.152C125.343 20.856 127.242 21.6133 129.61 22.424C128.948 23.9173 127.743 25.112 125.994 26.008C124.266 26.8827 122.004 27.32 119.21 27.32C115.583 27.32 112.895 26.488 111.146 24.824C109.418 23.1387 108.554 20.9307 108.554 18.2C108.554 15.5333 109.418 13.368 111.146 11.704C112.874 10.04 115.562 9.208 119.21 9.208C121.386 9.208 123.274 9.57067 124.874 10.296C126.474 11.0213 127.7 12.0347 128.554 13.336C129.407 14.616 129.834 16.088 129.834 17.752C129.834 18.3067 129.812 18.7227 129.77 19H125.802ZM119.658 14.04C118.591 14.04 117.716 14.2427 117.034 14.648C116.351 15.0533 115.871 15.608 115.594 16.312H123.146C122.89 15.6293 122.474 15.0853 121.898 14.68C121.322 14.2533 120.575 14.04 119.658 14.04ZM152.573 21.688C152.573 22.4133 152.659 22.9253 152.829 23.224C153 23.5227 153.341 23.736 153.853 23.864L153.725 26.872C153.043 26.9787 152.445 27.0533 151.933 27.096C151.443 27.1387 150.781 27.16 149.949 27.16C148.115 27.16 146.899 26.7547 146.301 25.944C145.704 25.112 145.405 24.056 145.405 22.776V21.976C144.787 23.7253 143.88 25.0267 142.685 25.88C141.512 26.7333 140.008 27.16 138.173 27.16C136.04 27.16 134.429 26.7333 133.341 25.88C132.275 25.0267 131.741 23.7573 131.741 22.072C131.741 20.6853 132.2 19.5973 133.117 18.808C134.035 18.0187 135.453 17.4747 137.373 17.176C135.752 16.024 134.131 15.0213 132.509 14.168C133.789 12.5467 135.251 11.32 136.893 10.488C138.536 9.63467 140.531 9.208 142.877 9.208C146.163 9.208 148.595 9.92267 150.173 11.352C151.773 12.76 152.573 14.936 152.573 17.88V21.688ZM143.549 14.84C142.461 14.84 141.501 15.0213 140.669 15.384C139.837 15.7467 139.091 16.2907 138.429 17.016C139.709 16.8667 141.309 16.792 143.229 16.792C144.019 16.792 144.573 16.696 144.893 16.504C145.213 16.312 145.373 16.0667 145.373 15.768C145.373 15.512 145.213 15.2987 144.893 15.128C144.573 14.936 144.125 14.84 143.549 14.84ZM140.189 21.944C141.384 21.944 142.461 21.72 143.421 21.272C144.381 20.8027 145.043 20.1947 145.405 19.448V18.616C144.893 18.872 144.328 19.0747 143.709 19.224C143.091 19.352 142.344 19.48 141.469 19.608L140.317 19.8C139.123 20.0347 138.525 20.44 138.525 21.016C138.525 21.6347 139.08 21.944 140.189 21.944ZM169.764 9.208C171.151 9.208 172.399 9.60266 173.508 10.392C174.617 11.1813 175.481 12.2587 176.1 13.624C176.719 14.968 177.028 16.4507 177.028 18.072C177.028 19.672 176.719 21.1867 176.1 22.616C175.481 24.024 174.607 25.1653 173.476 26.04C172.367 26.8933 171.097 27.32 169.668 27.32C168.004 27.32 166.575 26.9787 165.38 26.296C164.207 25.592 163.332 24.5147 162.756 23.064C162.756 24.28 162.799 26.232 162.884 28.92C162.969 31.5227 163.012 33.3573 163.012 34.424H155.78C155.908 30.456 155.972 26.3067 155.972 21.976C155.972 17.6453 155.908 13.496 155.78 9.528H161.924L162.852 13.528C163.449 12.0347 164.345 10.9467 165.54 10.264C166.735 9.56 168.143 9.208 169.764 9.208ZM166.34 21.56C167.3 21.56 168.1 21.2613 168.74 20.664C169.401 20.0453 169.732 19.2453 169.732 18.264C169.732 17.176 169.433 16.2907 168.836 15.608C168.239 14.9253 167.428 14.584 166.404 14.584C165.231 14.584 164.345 14.872 163.748 15.448C163.151 16.0027 162.852 16.9413 162.852 18.264C162.852 19.0107 163.044 19.64 163.428 20.152C163.812 20.6427 164.271 21.0053 164.804 21.24C165.337 21.4533 165.849 21.56 166.34 21.56ZM189.584 27.32C185.936 27.32 183.248 26.488 181.52 24.824C179.813 23.1387 178.96 20.9307 178.96 18.2C178.96 15.5333 179.813 13.368 181.52 11.704C183.248 10.04 185.936 9.208 189.584 9.208C192.037 9.208 194.085 9.61333 195.728 10.424C197.392 11.2133 198.619 12.2907 199.408 13.656C200.197 15 200.592 16.5147 200.592 18.2C200.592 20.952 199.675 23.16 197.84 24.824C196.027 26.488 193.275 27.32 189.584 27.32ZM189.712 21.88C191.099 21.88 192.133 21.5493 192.816 20.888C193.499 20.2267 193.84 19.3413 193.84 18.232C193.84 17.1867 193.499 16.3333 192.816 15.672C192.133 14.9893 191.099 14.648 189.712 14.648C188.325 14.648 187.312 14.9787 186.672 15.64C186.032 16.3013 185.712 17.1653 185.712 18.232C185.712 19.3413 186.032 20.2267 186.672 20.888C187.312 21.5493 188.325 21.88 189.712 21.88ZM217.339 15.256C215.376 15.128 213.584 15.032 211.963 14.968L211.931 18.36C211.931 19.512 212.176 20.4187 212.667 21.08C213.179 21.72 214.075 22.04 215.355 22.04C215.845 22.04 216.315 21.9973 216.763 21.912C216.677 22.7013 216.635 23.5013 216.635 24.312C216.635 24.696 216.656 25.5707 216.699 26.936C215.76 27.1067 214.971 27.2133 214.331 27.256C213.691 27.2987 212.859 27.32 211.835 27.32C209.339 27.32 207.568 26.7227 206.523 25.528C205.499 24.312 204.987 22.6267 204.987 20.472L205.019 15.064C204.016 15.1067 202.971 15.1707 201.883 15.256V9.592C202.992 9.592 203.931 9.24 204.699 8.536C205.467 7.832 205.925 6.98933 206.075 6.008H214.779C213.691 7.50133 212.485 8.696 211.163 9.592H217.339V15.256Z" fill="black"/>
</svg>
